HIERARCHY
ROOT hip
{
  OFFSET 0 0 0
  CHANNELS 6 Xposition Yposition Zposition Zrotation Yrotation Xrotation
  JOINT abdomen
  {
    OFFSET 0 20.6881 -0.73152
    CHANNELS 3 Zrotation Xrotation Yrotation
    JOINT chest
    {
      OFFSET 0 11.7043 -0.48768
      CHANNELS 3 Zrotation Xrotation Yrotation
      JOINT neck
      {
        OFFSET 0 22.1894 -2.19456
        CHANNELS 3 Zrotation Xrotation Yrotation
        JOINT head
        {
          OFFSET -0.24384 7.07133 1.2192
          CHANNELS 3 Zrotation Xrotation Yrotation
          JOINT leftEye
          {
            OFFSET 4.14528 8.04674 8.04672
            CHANNELS 3 Zrotation Xrotation Yrotation
            End Site
            {
              OFFSET 1 0 0
            }
          }
          JOINT rightEye
          {
            OFFSET -3.6576 8.04674 8.04672
            CHANNELS 3 Zrotation Xrotation Yrotation
            End Site
            {
              OFFSET 1 0 0
            }
          }
        }
      }
      JOINT rCollar
      {
        OFFSET -2.68224 19.2634 -4.8768
        CHANNELS 3 Zrotation Xrotation Yrotation
        JOINT rShldr
        {
          OFFSET -8.77824 -1.95073 1.46304
          CHANNELS 3 Zrotation Xrotation Yrotation
          JOINT rForeArm
          {
            OFFSET -28.1742 -1.7115 0.48768
            CHANNELS 3 Zrotation Xrotation Yrotation
            JOINT rHand
            {
              OFFSET -22.5879 0.773209 7.07136
              CHANNELS 3 Zrotation Xrotation Yrotation
              JOINT rThumb1
              {
                OFFSET -1.2192 -0.487915 3.41376
                CHANNELS 3 Zrotation Xrotation Yrotation
                JOINT rThumb2
                {
                  OFFSET -3.37035 -0.52449 3.41376
                  CHANNELS 3 Zrotation Xrotation Yrotation
                  End Site
                  {
                    OFFSET -1.78271 -1.18214 1.43049
                  }
                }
              }
              JOINT rIndex1
              {
                OFFSET -7.75947 0.938293 5.60832
                CHANNELS 3 Zrotation Xrotation Yrotation
                JOINT rIndex2
                {
                  OFFSET -2.54057 -0.884171 1.56538
                  CHANNELS 3 Zrotation Xrotation Yrotation
                  End Site
                  {
                    OFFSET -1.62519 -0.234802 1.16502
                  }
                }
              }
              JOINT rMid1
              {
                OFFSET -8.24714 1.18213 3.41376
                CHANNELS 3 Zrotation Xrotation Yrotation
                JOINT rMid2
                {
                  OFFSET -3.10165 -0.590103 1.0647
                  CHANNELS 3 Zrotation Xrotation Yrotation
                  End Site
                  {
                    OFFSET -2.48547 -0.328903 0.83742
                  }
                }
              }
              JOINT rRing1
              {
                OFFSET -8.82822 0.546677 1.51678
                CHANNELS 3 Zrotation Xrotation Yrotation
                JOINT rRing2
                {
                  OFFSET -2.60934 -0.819778 -0.0198488
                  CHANNELS 3 Zrotation Xrotation Yrotation
                  End Site
                  {
                    OFFSET -2.33842 -0.294052 0.168128
                  }
                }
              }
              JOINT rPinky1
              {
                OFFSET -8.27202 -0.0477905 -0.4584
                CHANNELS 3 Zrotation Xrotation Yrotation
                JOINT rPinky2
                {
                  OFFSET -1.82734 -0.647385 -0.700984
                  CHANNELS 3 Zrotation Xrotation Yrotation
                  End Site
                  {
                    OFFSET -1.69225 -0.51767 -0.607171
                  }
                }
              }
            }
          }
        }
      }
      JOINT lCollar
      {
        OFFSET 2.68224 19.2634 -4.8768
        CHANNELS 3 Zrotation Xrotation Yrotation
        JOINT lShldr
        {
          OFFSET 8.77824 -1.95073 1.46304
          CHANNELS 3 Zrotation Xrotation Yrotation
          JOINT lForeArm
          {
            OFFSET 28.1742 -1.7115 0.48768
            CHANNELS 3 Zrotation Xrotation Yrotation
            JOINT lHand
            {
              OFFSET 22.5879 0.773209 7.07136
              CHANNELS 3 Zrotation Xrotation Yrotation
              JOINT lThumb1
              {
                OFFSET 1.2192 -0.487915 3.41376
                CHANNELS 3 Zrotation Xrotation Yrotation
                JOINT lThumb2
                {
                  OFFSET 3.37035 -0.52449 3.41376
                  CHANNELS 3 Zrotation Xrotation Yrotation
                  End Site
                  {
                    OFFSET 1.78271 -1.18214 1.43049
                  }
                }
              }
              JOINT lIndex1
              {
                OFFSET 7.75947 0.938293 5.60832
                CHANNELS 3 Zrotation Xrotation Yrotation
                JOINT lIndex2
                {
                  OFFSET 2.54057 -0.884171 1.56538
                  CHANNELS 3 Zrotation Xrotation Yrotation
                  End Site
                  {
                    OFFSET 1.62519 -0.234802 1.16502
                  }
                }
              }
              JOINT lMid1
              {
                OFFSET 8.24714 1.18213 3.41376
                CHANNELS 3 Zrotation Xrotation Yrotation
                JOINT lMid2
                {
                  OFFSET 3.10165 -0.590103 1.0647
                  CHANNELS 3 Zrotation Xrotation Yrotation
                  End Site
                  {
                    OFFSET 2.48547 -0.328903 0.83742
                  }
                }
              }
              JOINT lRing1
              {
                OFFSET 8.82822 0.546677 1.51678
                CHANNELS 3 Zrotation Xrotation Yrotation
                JOINT lRing2
                {
                  OFFSET 2.60934 -0.819778 -0.0198488
                  CHANNELS 3 Zrotation Xrotation Yrotation
                  End Site
                  {
                    OFFSET 2.33842 -0.294052 0.168128
                  }
                }
              }
              JOINT lPinky1
              {
                OFFSET 8.27202 -0.0477905 -0.4584
                CHANNELS 3 Zrotation Xrotation Yrotation
                JOINT lPinky2
                {
                  OFFSET 1.82734 -0.647385 -0.700984
                  CHANNELS 3 Zrotation Xrotation Yrotation
                  End Site
                  {
                    OFFSET 1.69225 -0.51767 -0.607171
                  }
                }
              }
            }
          }
        }
      }
    }
  }
  JOINT rButtock
  {
    OFFSET -8.77824 4.35084 1.2192
    CHANNELS 3 Zrotation Xrotation Yrotation
    JOINT rThigh
    {
      OFFSET 0 -1.70687 -2.19456
      CHANNELS 3 Zrotation Xrotation Yrotation
      JOINT rShin
      {
        OFFSET 0 -36.8199 0.73152
        CHANNELS 3 Zrotation Xrotation Yrotation
        JOINT rFoot
        {
          OFFSET 0.73152 -45.1104 -5.12064
          CHANNELS 3 Zrotation Xrotation Yrotation
          End Site
          {
            OFFSET -1.1221 -3.69964 12.103
          }
        }
      }
    }
  }
  JOINT lButtock
  {
    OFFSET 8.77824 4.35084 1.2192
    CHANNELS 3 Zrotation Xrotation Yrotation
    JOINT lThigh
    {
      OFFSET 0 -1.70687 -2.19456
      CHANNELS 3 Zrotation Xrotation Yrotation
      JOINT lShin
      {
        OFFSET 0 -36.8199 0.73152
        CHANNELS 3 Zrotation Xrotation Yrotation
        JOINT lFoot
        {
          OFFSET -0.73152 -45.1104 -5.12064
          CHANNELS 3 Zrotation Xrotation Yrotation
          End Site
          {
            OFFSET 1.1221 -3.69964 12.103
          }
        }
      }
    }
  }
}
MOTION
Frames:	5
Frame Time:	0.00833333
9.82824 56.3981 -22.4452 -4.3607 -4.5538 19.1355 -4.96334 48.9532 16.8672 3.85129 -1.56135 3.87737 -3.99071 0.286379 -4.02548 -10.8529 3.77483 -6.2247 -0.0 0.0 0.0 -0.0 0.0 0.0 -4.04681e-14 4.65146e-14 1.56422e-13 44.9311 4.0189 62.9716 -12.3381 -5.6884 22.2663 -0.329209 -16.1095 -2.32628 -7.20495e-10 1.51444e-09 -1.65383e-09 -1.22704e-09 2.6059e-09 -2.87043e-09 -7.20491e-10 1.51444e-09 -1.65385e-09 7.73091 5.47488 0.417314 -7.20491e-10 1.51444e-09 -1.65384e-09 2.90554 0.965183 0.102902 -7.20488e-10 1.51444e-09 -1.65384e-09 10.2786 0.731801 0.0259123 -7.20497e-10 1.51445e-09 -1.65383e-09 2.22167 -0.733487 -0.20892 -4.04989e-14 4.65165e-14 1.56338e-13 -45.9055 55.8327 -37.92 28.4202 -34.7763 -74.9714 0.013529 3.29265 -0.463277 -1.11529e-09 1.19522e-09 1.90665e-09 -1.92581e-09 2.06926e-09 3.29855e-09 -1.11529e-09 1.19521e-09 1.90665e-09 -7.73091 5.47488 -0.417314 -1.11529e-09 1.19522e-09 1.90665e-09 -2.90554 0.965183 -0.102902 -1.11529e-09 1.19521e-09 1.90665e-09 -10.2786 0.731801 -0.0259123 -1.11528e-09 1.19522e-09 1.90664e-09 -2.22167 -0.733487 0.20892 -2.03217e-16 0.0 -3.88251e-19 -62.3831 -54.2038 -84.367 -174.879 75.484 175.753 -1.21896 -16.6963 -3.33993 2.03217e-16 0.0 3.88251e-19 93.9447 -79.639 98.1577 142.17 88.1666 -142.298 -1.49102 -15.0701 -5.22263
9.93006 55.8424 -22.381 -4.2948 -4.5274 19.1119 -4.77139 49.3757 16.6139 4.22403 -1.4542 3.8211 -4.59773 0.266479 -4.05228 -10.6826 3.61263 -6.1369 -0.0 0.0 0.0 -0.0 0.0 0.0 -6.04019e-14 -1.5008e-14 1.95826e-13 44.6183 3.61808 63.4447 -12.2714 -5.64069 22.1365 -0.334357 -16.2302 -2.34469 -1.51951e-09 1.60824e-09 2.10926e-11 -2.6258e-09 2.78753e-09 1.88701e-11 -1.51951e-09 1.60824e-09 2.1077e-11 7.73091 5.47488 0.417314 -1.51951e-09 1.60824e-09 2.10874e-11 2.90554 0.965183 0.102902 -1.5195e-09 1.60824e-09 2.10882e-11 10.2786 0.731801 0.0259123 -1.51951e-09 1.60825e-09 2.10964e-11 2.22167 -0.733487 -0.20892 -6.03968e-14 -1.50084e-14 1.95773e-13 -46.473 55.6874 -37.5092 28.4271 -35.0555 -75.4353 0.0128796 3.22872 -0.454257 2.95355e-10 -5.02811e-10 -2.48627e-10 5.08028e-10 -8.75256e-10 -4.32414e-10 2.95353e-10 -5.02825e-10 -2.48616e-10 -7.73091 5.47488 -0.417314 2.95354e-10 -5.02812e-10 -2.48617e-10 -2.90554 0.965183 -0.102902 2.9535e-10 -5.02828e-10 -2.48621e-10 -10.2786 0.731801 -0.0259123 2.95355e-10 -5.02811e-10 -2.48623e-10 -2.22167 -0.733487 0.20892 -2.03217e-16 0.0 -3.88251e-19 -63.6976 -53.7686 -85.5994 -175.157 74.4152 176.046 -1.09356 -16.8703 -3.05459 2.03217e-16 0.0 3.88251e-19 97.829 -79.5563 102.117 155.422 87.2488 -155.55 -1.43378 -15.3282 -5.00563
10.0221 55.2829 -22.3135 -4.1752 -4.5105 19.0626 -4.68165 49.7991 16.6621 4.36674 -1.41217 3.82892 -4.87006 0.324648 -4.14637 -10.609 3.37774 -6.27502 -0.0 0.0 0.0 -0.0 0.0 0.0 -6.90699e-14 -4.1346e-14 2.06438e-13 44.6753 3.04676 63.6902 -12.2021 -5.59131 22.0016 -0.336583 -16.2819 -2.35258 -1.80922e-09 1.52755e-09 9.69611e-10 -3.13674e-09 2.65871e-09 1.65712e-09 -1.80921e-09 1.52755e-09 9.69592e-10 7.73091 5.47488 0.417314 -1.80922e-09 1.52755e-09 9.69605e-10 2.90554 0.965183 0.102902 -1.80921e-09 1.52755e-09 9.69606e-10 10.2786 0.731801 0.0259123 -1.80922e-09 1.52755e-09 9.69614e-10 2.22167 -0.733487 -0.20892 -6.90403e-14 -4.13482e-14 2.06388e-13 -46.4061 55.7308 -37.4842 28.4315 -35.3327 -75.8966 0.01249 3.18913 -0.44867 1.08981e-09 -1.47155e-09 -1.49693e-09 1.87895e-09 -2.55488e-09 -2.59324e-09 1.08981e-09 -1.47157e-09 -1.49692e-09 -7.73091 5.47488 -0.417314 1.08981e-09 -1.47156e-09 -1.49692e-09 -2.90554 0.965183 -0.102902 1.08981e-09 -1.47158e-09 -1.49692e-09 -10.2786 0.731801 -0.0259123 1.08981e-09 -1.47155e-09 -1.49692e-09 -2.22167 -0.733487 0.20892 -2.03217e-16 0.0 -3.88251e-19 -64.9636 -53.321 -86.7479 -175.394 73.369 176.296 -0.949901 -17.0193 -2.7377 2.03217e-16 0.0 3.88251e-19 101.466 -79.3905 105.851 161.779 86.2757 -161.902 -1.42331 -15.5535 -4.90942
10.0646 54.7291 -22.2525 -4.1734 -4.4821 18.9863 -4.771 50.2388 17.1888 4.17065 -1.46598 3.93489 -4.6367 0.481623 -4.34596 -10.6961 3.0305 -6.76154 -0.0 0.0 0.0 -0.0 0.0 0.0 -6.21549e-14 -9.31659e-15 1.80169e-13 45.2797 2.17277 63.6195 -12.119 -5.53252 21.8401 -0.334438 -16.2321 -2.34498 -1.33447e-09 1.22333e-09 7.86026e-10 -2.31466e-09 2.12993e-09 1.34543e-09 -1.33446e-09 1.22333e-09 7.86006e-10 7.73091 5.47488 0.417314 -1.33447e-09 1.22333e-09 7.86022e-10 2.90554 0.965183 0.102902 -1.33445e-09 1.22333e-09 7.86022e-10 10.2786 0.731801 0.0259123 -1.33447e-09 1.22333e-09 7.86031e-10 2.22167 -0.733487 -0.20892 -6.21102e-14 -9.31921e-15 1.80078e-13 -45.3579 56.0541 -38.0721 28.4339 -35.6142 -76.3623 0.0122067 3.13542 -0.441109 9.33835e-10 -1.30938e-09 -1.32655e-09 1.61042e-09 -2.27318e-09 -2.29813e-09 9.33833e-10 -1.3094e-09 -1.32654e-09 -7.73091 5.47488 -0.417314 9.33834e-10 -1.30939e-09 -1.32654e-09 -2.90554 0.965183 -0.102902 9.33829e-10 -1.3094e-09 -1.32654e-09 -10.2786 0.731801 -0.0259123 9.33837e-10 -1.30938e-09 -1.32655e-09 -2.22167 -0.733487 0.20892 -2.03217e-16 0.0 -3.88251e-19 -66.1714 -52.8596 -87.8005 -175.597 72.3531 176.512 -0.790996 -17.138 -2.39503 2.03217e-16 0.0 3.88251e-19 104.708 -79.1391 109.223 165.399 85.2984 -165.512 -1.49519 -15.7339 -5.01674
10.112 54.1924 -22.186 -4.1559 -4.4905 18.9224 -4.98043 50.6773 18.0127 3.77101 -1.58522 4.10035 -4.09186 0.711835 -4.60856 -10.8834 2.61635 -7.45904 -0.0 0.0 0.0 -0.0 0.0 0.0 -4.55307e-14 5.90405e-14 1.29198e-13 46.2205 1.10057 63.3593 -12.0279 -5.46842 21.6634 -0.329318 -16.1121 -2.32668 -3.66702e-10 7.53063e-10 -6.73906e-11 -6.33533e-10 1.306e-09 -1.195e-10 -3.66698e-10 7.53065e-10 -6.74113e-11 7.73091 5.47488 0.417314 -3.66702e-10 7.53063e-10 -6.73905e-11 2.90554 0.965183 0.102902 -3.66691e-10 7.53063e-10 -6.73928e-11 10.2786 0.731801 0.0259123 -3.66701e-10 7.53064e-10 -6.73827e-11 2.22167 -0.733487 -0.20892 -4.54753e-14 5.90379e-14 1.29036e-13 -43.6996 56.5522 -39.0342 28.4335 -35.902 -76.84 0.0117731 3.04691 -0.428649 2.14892e-10 -4.75037e-10 -3.18552e-10 3.70832e-10 -8.25723e-10 -5.52971e-10 2.1489e-10 -4.75048e-10 -3.18539e-10 -7.73091 5.47488 -0.417314 2.14891e-10 -4.7504e-10 -3.18541e-10 -2.90554 0.965183 -0.102902 2.14885e-10 -4.75051e-10 -3.18547e-10 -10.2786 0.731801 -0.0259123 2.14898e-10 -4.75038e-10 -3.18549e-10 -2.22167 -0.733487 0.20892 -2.03217e-16 0.0 -3.88251e-19 -67.3223 -52.3772 -88.7693 -175.773 71.3613 176.701 -0.614035 -17.2474 -2.01826 2.03217e-16 0.0 3.88251e-19 107.618 -78.8276 112.284 167.736 84.3221 -167.836 -1.62507 -15.8735 -5.26638
